<svg version="1.1" id="Layer_1" xmlns="http://www.w3.org/2000/svg" x="0" y="0" viewBox="0 0 800 200" xml:space="preserve"><style>.st0{fill:#fff}</style><g id="XMLID_42_"><path id="XMLID_77_" class="st0" d="M133 83.6c-1.9 0-3.8-.7-5.3-2.2-2.9-2.9-2.9-7.6 0-10.5 2.9-2.9 7.6-2.9 10.5 0 2.9 2.9 2.9 7.6 0 10.5-1.4 1.5-3.3 2.2-5.2 2.2zm0-11.8c-1.2 0-2.3.5-3.1 1.3-1.7 1.7-1.7 4.5 0 6.3 1.7 1.7 4.6 1.7 6.3 0 1.7-1.7 1.7-4.5 0-6.3-.9-.9-2-1.3-3.2-1.3z"/><g id="XMLID_43_"><path id="XMLID_74_" class="st0" d="M108.8 110.1c-5.3 0-9.6-4.3-9.6-9.6s4.3-9.6 9.6-9.6 9.6 4.3 9.6 9.6-4.4 9.6-9.6 9.6zm0-16.2c-3.6 0-6.6 3-6.6 6.6s3 6.6 6.6 6.6 6.6-3 6.6-6.6-3-6.6-6.6-6.6z"/><g id="XMLID_44_"><path id="XMLID_71_" class="st0" d="M108.8 73.6c-4.1 0-7.4-3.3-7.4-7.4s3.3-7.4 7.4-7.4 7.4 3.3 7.4 7.4-3.3 7.4-7.4 7.4zm0-11.9c-2.4 0-4.4 2-4.4 4.4 0 2.4 2 4.4 4.4 4.4s4.4-2 4.4-4.4c0-2.4-2-4.4-4.4-4.4z"/><circle id="XMLID_70_" class="st0" cx="108.8" cy="82.2" r="1.9"/><circle id="XMLID_69_" class="st0" cx="95.9" cy="87.6" r="1.9"/><circle id="XMLID_68_" class="st0" cx="90.5" cy="100.5" r="1.9"/><circle id="XMLID_67_" class="st0" cx="95.9" cy="113.4" r="1.9"/><circle id="XMLID_66_" class="st0" cx="108.8" cy="118.7" r="1.9"/><circle id="XMLID_65_" class="st0" cx="121.7" cy="113.4" r="1.9"/><circle id="XMLID_64_" class="st0" cx="127" cy="100.5" r="1.9"/><path id="XMLID_61_" class="st0" d="M84.5 83.6c-1.9 0-3.8-.7-5.3-2.2-2.9-2.9-2.9-7.6 0-10.5 2.9-2.9 7.6-2.9 10.5 0 2.9 2.9 2.9 7.6 0 10.5-1.4 1.5-3.3 2.2-5.2 2.2zm0-11.8c-1.2 0-2.3.5-3.1 1.3-1.7 1.7-1.7 4.5 0 6.3 1.7 1.7 4.5 1.7 6.3 0 1.7-1.7 1.7-4.5 0-6.3-.9-.9-2-1.3-3.2-1.3z"/><path id="XMLID_58_" class="st0" d="M74.4 107.9c-4.1 0-7.4-3.3-7.4-7.4s3.3-7.4 7.4-7.4 7.4 3.3 7.4 7.4-3.3 7.4-7.4 7.4zm0-11.9c-2.4 0-4.4 2-4.4 4.4s2 4.4 4.4 4.4 4.4-2 4.4-4.4-1.9-4.4-4.4-4.4z"/><path id="XMLID_55_" class="st0" d="M84.5 132.2c-1.9 0-3.8-.7-5.3-2.2-2.9-2.9-2.9-7.6 0-10.5 2.9-2.9 7.6-2.9 10.5 0 2.9 2.9 2.9 7.6 0 10.5-1.4 1.4-3.3 2.2-5.2 2.2zm-3.1-10.6c-1.7 1.7-1.7 4.5 0 6.3 1.7 1.7 4.6 1.7 6.3 0 1.7-1.7 1.7-4.5 0-6.3-1.8-1.7-4.7-1.7-6.3 0z"/><path id="XMLID_52_" class="st0" d="M133 132.2c-1.9 0-3.8-.7-5.3-2.2-2.9-2.9-2.9-7.6 0-10.5 2.9-2.9 7.6-2.9 10.5 0 2.9 2.9 2.9 7.6 0 10.5-1.4 1.4-3.3 2.2-5.2 2.2zm-3.1-4.3c1.7 1.7 4.6 1.7 6.3 0 1.7-1.7 1.7-4.5 0-6.3-1.7-1.7-4.6-1.7-6.3 0-1.7 1.7-1.7 4.5 0 6.3z"/><path id="XMLID_49_" class="st0" d="M143.1 107.9c-4.1 0-7.4-3.3-7.4-7.4s3.3-7.4 7.4-7.4 7.4 3.3 7.4 7.4-3.3 7.4-7.4 7.4zm0-11.9c-2.4 0-4.4 2-4.4 4.4s2 4.4 4.4 4.4 4.4-2 4.4-4.4-2-4.4-4.4-4.4z"/><path id="XMLID_46_" class="st0" d="M108.8 142.2c-4.1 0-7.4-3.3-7.4-7.4s3.3-7.4 7.4-7.4 7.4 3.3 7.4 7.4-3.3 7.4-7.4 7.4zm0-11.8c-2.4 0-4.4 2-4.4 4.4s2 4.4 4.4 4.4 4.4-2 4.4-4.4-2-4.4-4.4-4.4z"/><path id="XMLID_45_" transform="rotate(45.001 121.662 87.567)" class="st0" d="M120.2 77.4h3v20.3h-3z"/></g></g></g><g id="XMLID_2_"><g id="XMLID_29_"><path id="XMLID_39_" class="st0" d="M574.5 80h4.9v7c1.9-2.7 4.2-4.7 6.7-6 2.5-1.3 5.3-2 8.5-2 5.4 0 10.1 2 13.9 5.9s5.8 8.6 5.8 14.1c0 5.6-1.9 10.4-5.7 14.3s-8.4 5.9-13.9 5.9c-3 0-5.8-.6-8.4-1.9-2.6-1.3-4.9-3.2-6.9-5.7v20.6h-4.9V80zm19.7 3.8c-4.3 0-7.8 1.5-10.8 4.5-2.9 3-4.4 6.7-4.4 11.1 0 2.9.6 5.5 1.9 7.8s3.2 4.2 5.6 5.5c2.4 1.4 5 2 7.7 2 2.6 0 5.1-.7 7.5-2.1 2.3-1.4 4.2-3.3 5.6-5.7 1.4-2.5 2.1-5 2.1-7.7s-.7-5.3-2.1-7.7c-1.4-2.4-3.2-4.3-5.5-5.7-2.4-1.3-4.9-2-7.6-2z"/><path id="XMLID_36_" class="st0" d="M660.2 80v38.3h-4.9v-6.6c-2.1 2.5-4.4 4.4-6.9 5.7s-5.4 1.9-8.4 1.9c-5.4 0-10-2-13.9-5.9s-5.7-8.7-5.7-14.3c0-5.5 1.9-10.2 5.8-14.1s8.5-5.9 14-5.9c3.1 0 6 .7 8.5 2s4.8 3.3 6.7 6v-7h4.8zm-19.7 3.8c-2.7 0-5.3.7-7.6 2s-4.2 3.2-5.5 5.7-2.1 5-2.1 7.7.7 5.3 2.1 7.7 3.2 4.4 5.6 5.7c2.3 1.4 4.8 2.1 7.5 2.1s5.2-.7 7.7-2c2.4-1.4 4.3-3.2 5.6-5.5 1.3-2.3 1.9-4.9 1.9-7.8 0-4.4-1.5-8.1-4.4-11.1-2.9-3-6.5-4.5-10.8-4.5z"/><path id="XMLID_34_" class="st0" d="M670.8 80h5v5.6c1.5-2.2 3.1-3.8 4.7-4.9s3.4-1.6 5.2-1.6c1.4 0 2.8.4 4.4 1.3l-2.6 4.1c-1-.4-1.9-.7-2.6-.7-1.6 0-3.2.7-4.7 2s-2.7 3.4-3.5 6.3c-.6 2.2-.9 6.6-.9 13.2v12.9h-5V80z"/><path id="XMLID_32_" class="st0" d="M725.5 79h5.1l-17.1 18 21 21.7-5.7.5-17.5-18.2-6.3 4.3v13h-4.9v-53h4.9v34.4L725.5 79z"/><path id="XMLID_30_" class="st0" d="M539.5 71.3c-2 2-3 4.4-3 7.3 0 2.2.6 3.9 1.7 5.2 1.1 1.3 2.6 2.2 4.3 2.9 1.7.6 4 1.3 7.1 2 3.5.8 6.4 1.7 8.6 2.5 2.2.9 4.1 2.3 5.6 4.3s2.3 4.8 2.3 8.3c0 5.1-1.5 9.1-4.6 11.8s-7.4 4.2-13 4.2c-4.1 0-7.6-.8-10.5-2.3s-5.2-3.4-7-5.4l1.9-4.1c1.9 2 4.1 3.7 6.7 5.1 2.6 1.4 5.6 2 9 2 4.4 0 7.6-1 9.8-3 2.2-2 3.2-4.7 3.2-7.9 0-2.3-.6-4.1-1.7-5.4-1.2-1.3-2.6-2.3-4.3-2.9-1.7-.6-4.1-1.3-7.1-2-3.5-.9-6.4-1.7-8.5-2.6-2.2-.9-4-2.3-5.5-4.3s-2.3-4.7-2.3-8.2c0-2.9.6-5.5 1.9-7.8 1.3-2.3 3.2-4.1 5.6-5.4 2.5-1.3 5.4-1.9 8.8-1.9 3.5 0 6.7.9 9.5 2.7 2.8 1.8 5 3.6 6.5 5.6l-1.9 4.1c-4.5-5-9.3-7.5-14.2-7.5-3.9-.3-6.9.7-8.9 2.7z"/></g><g id="XMLID_3_"><g id="XMLID_27_"><path id="XMLID_28_" class="st0" d="M219.2 108.2c-4.5 4.3-9.9 6.5-16.2 6.5-6.6 0-12-2.1-16.4-6.3s-6.5-9.5-6.5-15.8c0-4.2 1-7.9 2.9-11.3s4.7-6 8.2-8 7.3-3 11.5-3c3.8 0 7.2.8 10.4 2.3 1.7.8 3.2 1.8 4.6 3l4.1-3.4c-1.8-1.6-3.8-3-6-4.1-3.9-1.9-8.3-2.9-13.1-2.9-8 0-14.6 2.6-20 7.8s-8 11.5-8 19.1c0 7.2 2.2 13.3 6.6 18.4 5.2 6 12.4 9 21.4 9 4.8 0 9.1-.9 12.9-2.7 2.6-1.2 4.9-2.8 6.9-4.7l-3.3-3.9z"/></g><path id="XMLID_24_" class="st0" d="M247.2 79c5.9 0 10.8 2.1 14.7 6.4 3.5 3.9 5.3 8.5 5.3 13.8 0 5.3-1.9 10-5.6 14-3.7 4-8.5 6-14.4 6s-10.7-2-14.4-6c-3.7-4-5.6-8.7-5.6-14 0-5.3 1.8-9.9 5.3-13.8 3.9-4.2 8.8-6.4 14.7-6.4zm0 4.9c-4.1 0-7.6 1.5-10.5 4.5-2.9 3-4.4 6.7-4.4 11 0 2.8.7 5.3 2 7.7s3.2 4.2 5.4 5.5c2.3 1.3 4.8 2 7.5 2s5.2-.7 7.5-2 4.1-3.1 5.4-5.5 2-5 2-7.7c0-4.3-1.5-7.9-4.4-11-2.9-3-6.4-4.5-10.5-4.5z"/><path id="XMLID_22_" class="st0" d="M324.7 80h4.9v6.9c2-2.6 4.1-4.6 6.5-5.9s5-2 7.8-2c2.9 0 5.4.7 7.6 2.2s3.8 3.4 4.9 5.9 1.6 6.3 1.6 11.5v19.7h-4.9V100c0-4.4-.2-7.3-.5-8.8-.6-2.5-1.7-4.4-3.3-5.7s-3.7-1.9-6.3-1.9c-3 0-5.6 1-8 3s-3.9 4.4-4.7 7.3c-.5 1.9-.7 5.4-.7 10.4v14h-4.9V80z"/><path id="XMLID_20_" class="st0" d="M366.4 80h4.9v38.3h-4.9V80z"/><path id="XMLID_18_" class="st0" d="M403.8 80h4.9v38.3h-4.9V80z"/><path id="XMLID_16_" class="st0" d="M366.4 68.9h4.9v-5.3h-4.9v5.3z"/><path id="XMLID_14_" class="st0" d="M403.8 68.9h4.9v-5.3h-4.9v5.3z"/><path id="XMLID_12_" class="st0" d="M416.8 80h5.2l14.3 32.5L450.5 80h5.3l-17.9 38.3h-3.5L416.8 80z"/><path id="XMLID_9_" class="st0" d="M496.2 109.7l3 3.8c-7.9 6-11.9 5.3-18.3 5.8-6.2 0-11.1-2-14.6-6.1s-5.3-8.7-5.3-13.9c0-4.9 1.5-9.2 4.5-13 3.8-4.8 8.8-7.2 15.2-7.2 6.5 0 11.7 2.5 15.6 7.4 2.8 3.5 4.2 7.9 4.2 13.1h-34.4c.1 4.4 1.5 8.1 4.3 10.9 2.7 2.8 6.1 4.3 10.2 4.3 7.2.2 11.1-1.3 15.6-5.1zm-1.1-14.4c-.7-2.6-1.6-4.7-2.9-6.3-1.3-1.6-2.9-2.8-5-3.8s-4.2-1.4-6.5-1.4c-3.8 0-7 1.2-9.7 3.6-2 1.8-3.5 4.4-4.5 7.9h28.6z"/><g id="XMLID_5_"><path id="XMLID_6_" class="st0" d="M309.2 80v6.6c-2.3-2.7-4.7-4.7-7.2-5.9s-5.1-1.8-8-1.8c-3.4 0-6.7.9-9.8 2.7s-5.5 4.2-7.3 7.3c-1.8 3.1-2.6 6.4-2.6 9.9s.8 6.8 2.5 9.7c1.7 3 4.1 5.3 7.2 7 3.1 1.7 6.4 2.6 9.9 2.6 3 0 5.8-.6 8.5-1.9s4.9-3.1 6.8-5.4v2c0 4.2-.5 9.7-1.5 11.6-1 1.9-2.6 3.5-4.9 4.7-2.3 1.3-5.1 1.9-8.5 1.9-3.4 0-6.3-.6-8.6-1.8-.7-.4-1.3-.8-1.9-1.3v5.5c.6.3 1.2.5 1.8.7 2.6.9 5.6 1.4 8.8 1.4 4.5 0 8.3-.9 11.5-2.8s5.4-4.6 6.7-8.1c.9-2.5 1.4-8.8 1.4-14.2V80h-4.8zm-3.9 29.6c-2.8 2.7-6.4 4.1-10.9 4.1s-8.1-1.4-10.9-4.1-4.2-6.2-4.2-10.4c0-2.8.7-5.3 2-7.7s3.2-4.2 5.6-5.6 5-2 7.8-2c2.7 0 5.2.7 7.5 2s4.1 3.1 5.4 5.4 1.9 4.8 1.9 7.7c0 4.3-1.4 7.8-4.2 10.6z"/></g><path id="XMLID_4_" class="st0" d="M397.2 83.7v-4.3h-7.8v-9.2h-4.9v9.2h-6.7v4.3h6.7v30c.1 3.6 2.4 7.6 12.7 4.6v-3.7c-4.8 2.1-7.8 1.1-7.8-1v-30h7.8z"/></g></g></svg>