<svg xmlns="http://www.w3.org/2000/svg" width="42.957" height="59.625" viewBox="0 0 1136.56 1577.58" shape-rendering="geometricPrecision" text-rendering="geometricPrecision" image-rendering="optimizeQuality" fill-rule="evenodd" clip-rule="evenodd"><path d="M94.19 32.39c33.79-33.79 88.61-33.79 122.4 0 33.79 33.79 33.79 88.61 0 122.4l-4.4 4.2c-31.01 33.07-46.52 75.53-46.52 118.08 0 44.05 16.65 87.99 49.92 121.47l.16-.16 5.04 5.36 148.22 147.67.17-.17.54.54c1.79 1.79 3.48 3.64 5.08 5.54 63.94 66.87 95.91 152.82 95.91 238.6 0 88.08-33.67 176.23-100.99 243.68l-.17.16.17.17-5.34 4.99-147.95 147.42.16.16-4.41 4.21c-31 33.06-46.51 75.51-46.51 118.07 0 44.05 16.65 87.97 49.91 121.45l.16-.16.85.85c33.79 33.79 33.79 88.61 0 122.4-33.79 33.79-88.61 33.79-122.4 0l-.85-.85.17-.17-.17-.16C26.15 1490.69-7.47 1402.69-7.47 1314.78c0-85.61 31.91-171.37 95.67-238.21 1.62-1.93 3.33-3.81 5.14-5.62l.85-.85.17.17 148.21-147.68 4.75-5.06.16.16c33.38-33.53 50.09-77.59 50.09-121.77 0-42.66-15.56-85.23-46.66-118.35l-4.13-3.93.16-.16L98.99 526.07l-5.64-5.29.17-.17-.17-.16C26.14 453-7.47 364.97-7.47 277.07c0-85.61 31.9-171.39 95.69-238.23 1.61-1.93 3.32-3.8 5.13-5.61l.84-.84zm658.42 0c33.79-33.79 88.61-33.79 122.4 0 33.79 33.79 33.79 88.61 0 122.4l-4.42 4.22c-31 33.06-46.51 75.51-46.51 118.06 0 44.05 16.65 87.97 49.91 121.45l.16-.16 5.07 5.38 148.2 147.67.17-.17.54.54c1.79 1.79 3.48 3.64 5.08 5.54 63.94 66.87 95.91 152.82 95.91 238.6 0 88.08-33.67 176.23-100.99 243.68l-.17.16.17.17-5.33 4.99-147.95 147.42.16.16-4.44 4.24c-30.99 33.04-46.49 75.49-46.49 118.04 0 44.04 16.64 87.96 49.9 121.43l.16-.16.87.87c33.79 33.79 33.79 88.61 0 122.4-33.79 33.79-88.61 33.79-122.4 0l-.87-.87.17-.17-.17-.16c-67.2-67.44-100.8-155.45-100.8-243.34 0-85.59 31.9-171.36 95.66-238.2 1.62-1.92 3.33-3.8 5.14-5.61l.87-.87.17.17 148.2-147.68 4.75-5.06.16.16c33.38-33.53 50.09-77.59 50.09-121.77 0-42.66-15.56-85.23-46.66-118.35l-4.13-3.93.16-.16-147.94-147.41-5.66-5.31.17-.17-.17-.16c-67.19-67.45-100.81-155.45-100.81-243.36 0-85.6 31.91-171.36 95.67-238.2 1.62-1.93 3.33-3.81 5.14-5.62l.86-.86z" fill="#fff" fill-rule="nonzero"/></svg>