<svg width="1273" height="485" xmlns="http://www.w3.org/2000/svg"><g fill="none" fill-rule="evenodd" opacity=".202"><path d="M804.777 142.392c-2.968 17.266-2.695 10.964 10.668 9.892 1.25-.1 2.817 1.13 3.037 2.394.973 5.598.218 11.302.327 16.953" stroke="#2E3590" stroke-width="4" opacity=".88"/><path fill="#2E3590" opacity=".98" d="M650.469.875L631.54 27.907l27.032 18.928L677.5 19.803z"/><path fill="#2E3590" opacity=".9" d="M1154.779 223.792L1125 218.843 1140.87 197z"/><circle fill="#2E3590" opacity=".97" transform="rotate(-138 1026.252 86.586)" cx="1026.252" cy="86.586" r="9"/><circle fill="#2E3590" opacity=".8" transform="rotate(-73 385.862 466.862)" cx="385.862" cy="466.862" r="9.5"/><path fill="#2E3590" opacity=".96" d="M835.953 303.112L812.54 313.75l17.874 14.474z"/><path d="M1246.172 328.702c10.19-8.73 6.135-6.06 10.976 2.876.453.837 1.917 1.347 2.845.986 4.108-1.597 7.568-4.337 11.352-6.506" stroke="#2E3590" stroke-width="4" opacity=".82"/><path fill="#2E3590" d="M589.987 377.262l11.327 19.28 10.893-16.774z"/><path fill="#2E3590" opacity=".76" d="M1267.51 34.609l-33.609 12.901-12.9-33.609L1254.608 1z"/><path d="M35.942 197.542c10.389-8.045 6.312-5.645 10.307 3.581.374.864 1.74 1.468 2.655 1.168 4.05-1.326 7.56-3.835 11.341-5.752" stroke="#2E3590" stroke-width="4" opacity=".9"/><path fill="#2D3DAA" opacity=".87" d="M24.866 437L0 460.188l23.188 24.866 24.866-23.188z"/><circle fill="#2E3590" opacity=".7" transform="rotate(-155 255.625 228.625)" cx="255.625" cy="228.625" r="9.5"/><path d="M281.236 41.948c11.227 3.838 7.027 2.974 7.998-5.983.091-.839 1.116-1.741 1.994-1.75 3.885-.036 7.622 1.083 11.434 1.624" stroke="#2B3880" stroke-width="4"/></g></svg>